<svg xmlns="http://www.w3.org/2000/svg" width="375" viewBox="0 0 375 375" height="375" version="1.0"><defs><clipPath id="a"><path d="M 249.238281 140.386719 L 327.214844 140.386719 L 327.214844 219.480469 L 249.238281 219.480469 Z M 249.238281 140.386719"/></clipPath><clipPath id="b"><path d="M 118.886719 180.9375 L 253.535156 180.9375 L 253.535156 293.417969 L 118.886719 293.417969 Z M 118.886719 180.9375"/></clipPath><clipPath id="c"><path d="M 25.820312 25.820312 L 350.59375 25.820312 L 350.59375 350.59375 L 25.820312 350.59375 Z M 25.820312 25.820312"/></clipPath></defs><path fill="#39C" d="M 139.425781 85.523438 C 190.582031 78.363281 194.714844 169.824219 147.382812 167.613281 C 109.328125 165.832031 94.96875 91.746094 139.425781 85.523438" fill-rule="evenodd"/><path fill="#39C" d="M 221.648438 85.523438 C 277.988281 73.246094 271.410156 173.171875 218.996094 167.613281 C 177.511719 163.210938 185.597656 93.378906 221.648438 85.523438" fill-rule="evenodd"/><path fill="#39C" d="M 120.863281 195.417969 C 100.828125 239.082031 39.773438 208.234375 46.597656 164.960938 C 53.785156 119.386719 135.433594 142.621094 120.863281 195.417969" fill-rule="evenodd"/><g clip-path="url(#a)"><path fill="#39C" d="M 286.632812 141.132812 C 299.8125 138.585938 316.285156 143.261719 322.433594 154.371094 C 339.402344 185.023438 308.132812 222.488281 277.347656 219.246094 C 260.441406 217.472656 250.671875 203.105469 249.496094 190.121094 C 246.984375 162.308594 266.859375 144.953125 286.632812 141.132812" fill-rule="evenodd"/></g><g clip-path="url(#b)"><path fill="#39C" d="M 172.582031 182.171875 C 219.046875 174.171875 261.703125 207.601562 252.152344 264.261719 C 250.171875 275.988281 240.058594 292.574219 225.625 293.390625 C 213.972656 294.054688 200.347656 282.730469 185.84375 282.800781 C 167.832031 282.886719 153.636719 298.832031 136.773438 290.746094 C 122.613281 283.945312 116.886719 256.460938 119.539062 236.460938 C 123.347656 207.628906 144.582031 186.996094 172.582031 182.171875" fill-rule="evenodd"/></g><g clip-path="url(#c)"><path fill="#39C" d="M 188.207031 25.820312 C 98.488281 25.820312 25.820312 98.488281 25.820312 188.207031 C 25.820312 277.925781 98.488281 350.59375 188.207031 350.59375 C 277.925781 350.59375 350.59375 277.925781 350.59375 188.207031 C 350.59375 98.488281 277.925781 25.820312 188.207031 25.820312 Z M 188.207031 318.117188 C 116.433594 318.117188 58.296875 259.984375 58.296875 188.207031 C 58.296875 116.433594 116.433594 58.296875 188.207031 58.296875 C 259.984375 58.296875 318.117188 116.433594 318.117188 188.207031 C 318.117188 259.984375 259.984375 318.117188 188.207031 318.117188 Z M 188.207031 318.117188"/></g></svg>