<svg xmlns="http://www.w3.org/2000/svg" width="504" viewBox="0 0 504 96" height="96" version="1.0"><defs><clipPath id="a"><path d="M 65.039062 37.929688 L 87.21875 37.929688 L 87.21875 60.554688 L 65.039062 60.554688 Z M 65.039062 37.929688"/></clipPath><clipPath id="b"><path d="M 27.96875 49.527344 L 66.261719 49.527344 L 66.261719 81.699219 L 27.96875 81.699219 Z M 27.96875 49.527344"/></clipPath><clipPath id="c"><path d="M 1.5 2.015625 L 93.75 2.015625 L 93.75 94.265625 L 1.5 94.265625 Z M 1.5 2.015625"/></clipPath></defs><g fill="#FFF"><g><g><path d="M 30.1875 -11.25 C 30.1875 -13.207031 29.445312 -14.726562 27.96875 -15.8125 C 26.488281 -16.894531 23.910156 -17.828125 20.234375 -18.609375 C 16.566406 -19.398438 13.65625 -20.34375 11.5 -21.4375 C 9.34375 -22.539062 7.75 -23.847656 6.71875 -25.359375 C 5.6875 -26.878906 5.171875 -28.679688 5.171875 -30.765625 C 5.171875 -34.242188 6.640625 -37.1875 9.578125 -39.59375 C 12.523438 -42 16.285156 -43.203125 20.859375 -43.203125 C 25.660156 -43.203125 29.554688 -41.957031 32.546875 -39.46875 C 35.546875 -36.988281 37.046875 -33.816406 37.046875 -29.953125 L 29.75 -29.953125 C 29.75 -31.929688 28.90625 -33.640625 27.21875 -35.078125 C 25.539062 -36.515625 23.421875 -37.234375 20.859375 -37.234375 C 18.210938 -37.234375 16.144531 -36.660156 14.65625 -35.515625 C 13.164062 -34.367188 12.421875 -32.863281 12.421875 -31 C 12.421875 -29.25 13.113281 -27.929688 14.5 -27.046875 C 15.882812 -26.160156 18.382812 -25.3125 22 -24.5 C 25.625 -23.6875 28.5625 -22.71875 30.8125 -21.59375 C 33.0625 -20.46875 34.726562 -19.113281 35.8125 -17.53125 C 36.894531 -15.957031 37.4375 -14.035156 37.4375 -11.765625 C 37.4375 -7.972656 35.921875 -4.929688 32.890625 -2.640625 C 29.859375 -0.359375 25.925781 0.78125 21.09375 0.78125 C 17.695312 0.78125 14.691406 0.179688 12.078125 -1.015625 C 9.460938 -2.222656 7.414062 -3.90625 5.9375 -6.0625 C 4.457031 -8.21875 3.71875 -10.546875 3.71875 -13.046875 L 10.96875 -13.046875 C 11.101562 -10.617188 12.078125 -8.691406 13.890625 -7.265625 C 15.710938 -5.847656 18.113281 -5.140625 21.09375 -5.140625 C 23.832031 -5.140625 26.03125 -5.691406 27.6875 -6.796875 C 29.351562 -7.910156 30.1875 -9.394531 30.1875 -11.25 Z M 30.1875 -11.25" transform="translate(103.214 75.375)"/></g></g></g><g fill="#FFF"><g><g><path d="M 15.328125 -52.6875 L 15.328125 -42.421875 L 23.25 -42.421875 L 23.25 -36.8125 L 15.328125 -36.8125 L 15.328125 -10.5 C 15.328125 -8.800781 15.675781 -7.523438 16.375 -6.671875 C 17.082031 -5.828125 18.285156 -5.40625 19.984375 -5.40625 C 20.828125 -5.40625 21.976562 -5.5625 23.4375 -5.875 L 23.4375 0 C 21.53125 0.519531 19.675781 0.78125 17.875 0.78125 C 14.632812 0.78125 12.191406 -0.195312 10.546875 -2.15625 C 8.898438 -4.113281 8.078125 -6.894531 8.078125 -10.5 L 8.078125 -36.8125 L 0.359375 -36.8125 L 0.359375 -42.421875 L 8.078125 -42.421875 L 8.078125 -52.6875 Z M 15.328125 -52.6875" transform="translate(144.605 75.375)"/></g></g></g><g fill="#FFF"><g><g><path d="M 25.984375 -35.90625 C 24.890625 -36.09375 23.703125 -36.1875 22.421875 -36.1875 C 17.660156 -36.1875 14.429688 -34.160156 12.734375 -30.109375 L 12.734375 0 L 5.484375 0 L 5.484375 -42.421875 L 12.546875 -42.421875 L 12.65625 -37.515625 C 15.039062 -41.304688 18.414062 -43.203125 22.78125 -43.203125 C 24.1875 -43.203125 25.253906 -43.019531 25.984375 -42.65625 Z M 25.984375 -35.90625" transform="translate(170.827 75.375)"/></g></g></g><g fill="#FFF"><g><g><path d="M 23.09375 0.78125 C 17.34375 0.78125 12.660156 -1.101562 9.046875 -4.875 C 5.441406 -8.65625 3.640625 -13.707031 3.640625 -20.03125 L 3.640625 -21.359375 C 3.640625 -25.566406 4.441406 -29.320312 6.046875 -32.625 C 7.660156 -35.9375 9.910156 -38.523438 12.796875 -40.390625 C 15.679688 -42.265625 18.8125 -43.203125 22.1875 -43.203125 C 27.695312 -43.203125 31.976562 -41.382812 35.03125 -37.75 C 38.09375 -34.113281 39.625 -28.910156 39.625 -22.140625 L 39.625 -19.125 L 10.890625 -19.125 C 10.992188 -14.945312 12.21875 -11.570312 14.5625 -9 C 16.90625 -6.425781 19.878906 -5.140625 23.484375 -5.140625 C 26.046875 -5.140625 28.210938 -5.660156 29.984375 -6.703125 C 31.765625 -7.742188 33.320312 -9.128906 34.65625 -10.859375 L 39.078125 -7.40625 C 35.523438 -1.945312 30.195312 0.78125 23.09375 0.78125 Z M 22.1875 -37.234375 C 19.257812 -37.234375 16.800781 -36.164062 14.8125 -34.03125 C 12.832031 -31.90625 11.601562 -28.925781 11.125 -25.09375 L 32.375 -25.09375 L 32.375 -25.640625 C 32.164062 -29.316406 31.171875 -32.164062 29.390625 -34.1875 C 27.617188 -36.21875 25.21875 -37.234375 22.1875 -37.234375 Z M 22.1875 -37.234375" transform="translate(197.99 75.375)"/></g></g></g><g fill="#FFF"><g><g><path d="M 31.671875 0 C 31.253906 -0.832031 30.914062 -2.320312 30.65625 -4.46875 C 27.28125 -0.96875 23.253906 0.78125 18.578125 0.78125 C 14.398438 0.78125 10.96875 -0.398438 8.28125 -2.765625 C 5.601562 -5.128906 4.265625 -8.128906 4.265625 -11.765625 C 4.265625 -16.179688 5.941406 -19.609375 9.296875 -22.046875 C 12.660156 -24.492188 17.390625 -25.71875 23.484375 -25.71875 L 30.53125 -25.71875 L 30.53125 -29.046875 C 30.53125 -31.578125 29.769531 -33.59375 28.25 -35.09375 C 26.738281 -36.601562 24.507812 -37.359375 21.5625 -37.359375 C 18.96875 -37.359375 16.796875 -36.703125 15.046875 -35.390625 C 13.296875 -34.085938 12.421875 -32.507812 12.421875 -30.65625 L 5.140625 -30.65625 C 5.140625 -32.769531 5.890625 -34.8125 7.390625 -36.78125 C 8.890625 -38.757812 10.925781 -40.320312 13.5 -41.46875 C 16.070312 -42.625 18.898438 -43.203125 21.984375 -43.203125 C 26.878906 -43.203125 30.707031 -41.976562 33.46875 -39.53125 C 36.238281 -37.09375 37.675781 -33.726562 37.78125 -29.4375 L 37.78125 -9.921875 C 37.78125 -6.023438 38.28125 -2.925781 39.28125 -0.625 L 39.28125 0 Z M 19.640625 -5.53125 C 21.910156 -5.53125 24.066406 -6.117188 26.109375 -7.296875 C 28.148438 -8.472656 29.625 -10 30.53125 -11.875 L 30.53125 -20.578125 L 24.859375 -20.578125 C 15.972656 -20.578125 11.53125 -17.976562 11.53125 -12.78125 C 11.53125 -10.507812 12.285156 -8.734375 13.796875 -7.453125 C 15.316406 -6.171875 17.265625 -5.53125 19.640625 -5.53125 Z M 19.640625 -5.53125" transform="translate(240.518 75.375)"/></g></g></g><g fill="#FFF"><g><g><path d="M 12.3125 -42.421875 L 12.5 -37.703125 C 15.613281 -41.367188 19.8125 -43.203125 25.09375 -43.203125 C 31.019531 -43.203125 35.054688 -40.925781 37.203125 -36.375 C 38.609375 -38.414062 40.441406 -40.0625 42.703125 -41.3125 C 44.960938 -42.570312 47.632812 -43.203125 50.71875 -43.203125 C 60.03125 -43.203125 64.765625 -38.273438 64.921875 -28.421875 L 64.921875 0 L 57.65625 0 L 57.65625 -27.984375 C 57.65625 -31.015625 56.960938 -33.28125 55.578125 -34.78125 C 54.191406 -36.289062 51.867188 -37.046875 48.609375 -37.046875 C 45.910156 -37.046875 43.671875 -36.238281 41.890625 -34.625 C 40.117188 -33.019531 39.09375 -30.859375 38.8125 -28.140625 L 38.8125 0 L 31.515625 0 L 31.515625 -27.796875 C 31.515625 -33.960938 28.5 -37.046875 22.46875 -37.046875 C 17.707031 -37.046875 14.453125 -35.019531 12.703125 -30.96875 L 12.703125 0 L 5.453125 0 L 5.453125 -42.421875 Z M 12.3125 -42.421875" transform="translate(284.182 75.375)"/></g></g></g><g fill="#FFF"><g><g><path d="M 23.09375 0.78125 C 17.34375 0.78125 12.660156 -1.101562 9.046875 -4.875 C 5.441406 -8.65625 3.640625 -13.707031 3.640625 -20.03125 L 3.640625 -21.359375 C 3.640625 -25.566406 4.441406 -29.320312 6.046875 -32.625 C 7.660156 -35.9375 9.910156 -38.523438 12.796875 -40.390625 C 15.679688 -42.265625 18.8125 -43.203125 22.1875 -43.203125 C 27.695312 -43.203125 31.976562 -41.382812 35.03125 -37.75 C 38.09375 -34.113281 39.625 -28.910156 39.625 -22.140625 L 39.625 -19.125 L 10.890625 -19.125 C 10.992188 -14.945312 12.21875 -11.570312 14.5625 -9 C 16.90625 -6.425781 19.878906 -5.140625 23.484375 -5.140625 C 26.046875 -5.140625 28.210938 -5.660156 29.984375 -6.703125 C 31.765625 -7.742188 33.320312 -9.128906 34.65625 -10.859375 L 39.078125 -7.40625 C 35.523438 -1.945312 30.195312 0.78125 23.09375 0.78125 Z M 22.1875 -37.234375 C 19.257812 -37.234375 16.800781 -36.164062 14.8125 -34.03125 C 12.832031 -31.90625 11.601562 -28.925781 11.125 -25.09375 L 32.375 -25.09375 L 32.375 -25.640625 C 32.164062 -29.316406 31.171875 -32.164062 29.390625 -34.1875 C 27.617188 -36.21875 25.21875 -37.234375 22.1875 -37.234375 Z M 22.1875 -37.234375" transform="translate(354.539 75.375)"/></g></g></g><g fill="#FFF"><g><g><path d="M 3.5625 -21.59375 C 3.5625 -25.75 4.378906 -29.484375 6.015625 -32.796875 C 7.648438 -36.117188 9.921875 -38.679688 12.828125 -40.484375 C 15.742188 -42.296875 19.070312 -43.203125 22.8125 -43.203125 C 28.59375 -43.203125 33.265625 -41.203125 36.828125 -37.203125 C 40.390625 -33.203125 42.171875 -27.882812 42.171875 -21.25 L 42.171875 -20.734375 C 42.171875 -16.609375 41.378906 -12.90625 39.796875 -9.625 C 38.222656 -6.34375 35.960938 -3.785156 33.015625 -1.953125 C 30.078125 -0.128906 26.703125 0.78125 22.890625 0.78125 C 17.140625 0.78125 12.476562 -1.21875 8.90625 -5.21875 C 5.34375 -9.21875 3.5625 -14.507812 3.5625 -21.09375 Z M 10.859375 -20.734375 C 10.859375 -16.035156 11.945312 -12.257812 14.125 -9.40625 C 16.3125 -6.5625 19.234375 -5.140625 22.890625 -5.140625 C 26.578125 -5.140625 29.503906 -6.582031 31.671875 -9.46875 C 33.835938 -12.351562 34.921875 -16.394531 34.921875 -21.59375 C 34.921875 -26.25 33.816406 -30.019531 31.609375 -32.90625 C 29.398438 -35.789062 26.46875 -37.234375 22.8125 -37.234375 C 19.226562 -37.234375 16.335938 -35.804688 14.140625 -32.953125 C 11.953125 -30.109375 10.859375 -26.035156 10.859375 -20.734375 Z M 10.859375 -20.734375" transform="translate(397.067 75.375)"/></g></g></g><g fill="#FFF"><g><g><path d="M 43.046875 -10 L 51.1875 -42.421875 L 58.453125 -42.421875 L 46.09375 0 L 40.21875 0 L 29.90625 -32.140625 L 19.875 0 L 14 0 L 1.6875 -42.421875 L 8.890625 -42.421875 L 17.25 -10.65625 L 27.125 -42.421875 L 32.96875 -42.421875 Z M 43.046875 -10" transform="translate(442.848 75.375)"/></g></g></g><path fill="#39C" d="M 33.8125 22.238281 C 48.359375 20.1875 49.535156 46.347656 36.074219 45.714844 C 25.25 45.207031 21.167969 24.015625 33.8125 22.238281" fill-rule="evenodd"/><path fill="#39C" d="M 57.195312 22.238281 C 73.21875 18.726562 71.347656 47.308594 56.441406 45.714844 C 44.640625 44.457031 46.941406 24.484375 57.195312 22.238281" fill-rule="evenodd"/><path fill="#39C" d="M 28.53125 53.667969 C 22.832031 66.160156 5.46875 57.335938 7.410156 44.957031 C 9.453125 31.921875 32.675781 38.566406 28.53125 53.667969" fill-rule="evenodd"/><g clip-path="url(#a)"><path fill="#39C" d="M 75.675781 38.140625 C 79.425781 37.414062 84.109375 38.75 85.859375 41.929688 C 90.683594 50.695312 81.789062 61.414062 73.035156 60.484375 C 68.226562 59.976562 65.449219 55.867188 65.113281 52.15625 C 64.398438 44.199219 70.054688 39.234375 75.675781 38.140625" fill-rule="evenodd"/></g><g clip-path="url(#b)"><path fill="#39C" d="M 43.238281 49.882812 C 56.453125 47.59375 68.585938 57.15625 65.871094 73.359375 C 65.304688 76.714844 62.429688 81.457031 58.324219 81.691406 C 55.011719 81.882812 51.136719 78.644531 47.011719 78.664062 C 41.890625 78.6875 37.851562 83.25 33.054688 80.9375 C 29.027344 78.992188 27.398438 71.128906 28.152344 65.410156 C 29.238281 57.164062 35.277344 51.261719 43.238281 49.882812" fill-rule="evenodd"/></g><g clip-path="url(#c)"><path fill="#39C" d="M 47.625 2.015625 C 22.140625 2.015625 1.5 22.65625 1.5 48.140625 C 1.5 73.625 22.140625 94.265625 47.625 94.265625 C 73.109375 94.265625 93.75 73.625 93.75 48.140625 C 93.75 22.65625 73.109375 2.015625 47.625 2.015625 Z M 47.625 85.039062 C 27.238281 85.039062 10.726562 68.527344 10.726562 48.140625 C 10.726562 27.753906 27.238281 11.242188 47.625 11.242188 C 68.011719 11.242188 84.523438 27.753906 84.523438 48.140625 C 84.523438 68.527344 68.011719 85.039062 47.625 85.039062 Z M 47.625 85.039062"/></g></svg>